<svg width="4" height="17" viewBox="0 0 4 17" fill="none" xmlns="http://www.w3.org/2000/svg">
<path d="M2.00084 6.89648C1.15604 6.89648 0.464844 7.58768 0.464844 8.43248C0.464844 9.27728 1.15604 9.96848 2.00084 9.96848C2.84564 9.96848 3.53684 9.27728 3.53684 8.43248C3.53684 7.58768 2.84564 6.89648 2.00084 6.89648Z" fill="#252525"/>
<path d="M2.00084 13.0391C1.15604 13.0391 0.464844 13.7303 0.464844 14.5751C0.464844 15.4199 1.15604 16.1111 2.00084 16.1111C2.84564 16.1111 3.53684 15.4199 3.53684 14.5751C3.53684 13.7303 2.84564 13.0391 2.00084 13.0391Z" fill="#252525"/>
<path d="M2.00084 3.82393C2.84564 3.82393 3.53684 3.13273 3.53684 2.28793C3.53684 1.44313 2.84564 0.751953 2.00084 0.751953C1.15604 0.751953 0.464844 1.44313 0.464844 2.28793C0.464844 3.13273 1.15604 3.82393 2.00084 3.82393Z" fill="#252525"/>
</svg>
