<svg width="22" height="17" viewBox="0 0 22 17" fill="none" xmlns="http://www.w3.org/2000/svg">
<path d="M20.9998 8.00057H3.41379L8.70679 2.70757C8.8023 2.61532 8.87848 2.50498 8.93089 2.38297C8.9833 2.26097 9.01088 2.12975 9.01204 1.99697C9.01319 1.86419 8.98789 1.73251 8.93761 1.60962C8.88733 1.48672 8.81307 1.37507 8.71918 1.28117C8.62529 1.18728 8.51364 1.11303 8.39074 1.06275C8.26784 1.01247 8.13616 0.987165 8.00339 0.988319C7.87061 0.989473 7.73939 1.01706 7.61738 1.06947C7.49538 1.12188 7.38503 1.19806 7.29279 1.29357L0.292786 8.29357C0.105315 8.4811 0 8.7354 0 9.00057C0 9.26573 0.105315 9.52004 0.292786 9.70757L7.29279 16.7076C7.48139 16.8897 7.73399 16.9905 7.99619 16.9882C8.25838 16.986 8.5092 16.8808 8.6946 16.6954C8.88001 16.51 8.98518 16.2592 8.98746 15.997C8.98974 15.7348 8.88894 15.4822 8.70679 15.2936L3.41379 10.0006H20.9998C21.265 10.0006 21.5194 9.89521 21.7069 9.70768C21.8944 9.52014 21.9998 9.26579 21.9998 9.00057C21.9998 8.73535 21.8944 8.481 21.7069 8.29346C21.5194 8.10593 21.265 8.00057 20.9998 8.00057Z" fill="#252525"/>
</svg>
