<svg width="8" height="12" viewBox="0 0 8 12" fill="none" xmlns="http://www.w3.org/2000/svg">
<path d="M1.40108 0.726744C1.24523 0.723316 1.09218 0.768496 0.963212 0.856071C0.834246 0.943647 0.735769 1.06929 0.681475 1.21542C0.62718 1.36155 0.619765 1.52094 0.66026 1.67148C0.700754 1.82202 0.787147 1.95614 0.907427 2.05531L5.49678 5.98695L0.907427 9.9172C0.824223 9.97835 0.754542 10.056 0.702748 10.1453C0.650953 10.2346 0.618161 10.3337 0.606424 10.4363C0.594687 10.5389 0.604258 10.6428 0.634539 10.7415C0.66482 10.8402 0.715157 10.9317 0.782399 11.01C0.84964 11.0884 0.932338 11.152 1.02531 11.1969C1.11829 11.2418 1.21954 11.267 1.32272 11.271C1.4259 11.275 1.52879 11.2577 1.62495 11.2201C1.72111 11.1824 1.80847 11.1254 1.88155 11.0524L7.13594 6.55676C7.21846 6.48635 7.28472 6.39895 7.33015 6.30045C7.37558 6.20194 7.39911 6.09473 7.39911 5.98625C7.39911 5.87778 7.37558 5.77056 7.33015 5.67206C7.28472 5.57356 7.21846 5.48607 7.13594 5.41566L1.88155 0.915674C1.74881 0.797776 1.57856 0.730921 1.40108 0.726744Z" fill="#252525"/>
</svg>
