<svg width="18" height="18" viewBox="0 0 18 18" fill="none" xmlns="http://www.w3.org/2000/svg">
<path d="M5.66797 3.79102C5.3263 3.79102 5.04297 3.50768 5.04297 3.16602V0.666016C5.04297 0.324349 5.3263 0.0410156 5.66797 0.0410156C6.00964 0.0410156 6.29297 0.324349 6.29297 0.666016V3.16602C6.29297 3.50768 6.00964 3.79102 5.66797 3.79102Z" fill="#252525"/>
<path d="M12.332 3.79102C11.9904 3.79102 11.707 3.50768 11.707 3.16602V0.666016C11.707 0.324349 11.9904 0.0410156 12.332 0.0410156C12.6737 0.0410156 12.957 0.324349 12.957 0.666016V3.16602C12.957 3.50768 12.6737 3.79102 12.332 3.79102Z" fill="#252525"/>
<path d="M6.08333 11.082C5.975 11.082 5.86667 11.057 5.76667 11.0153C5.65833 10.9736 5.575 10.9153 5.49167 10.8403C5.34167 10.682 5.25 10.4736 5.25 10.2486C5.25 10.1403 5.275 10.032 5.31667 9.93196C5.35833 9.83196 5.41667 9.74029 5.49167 9.65696C5.575 9.58196 5.65833 9.52363 5.76667 9.48196C6.06667 9.35696 6.44167 9.42363 6.675 9.65696C6.825 9.81529 6.91667 10.032 6.91667 10.2486C6.91667 10.2986 6.90833 10.357 6.9 10.4153C6.89167 10.4653 6.875 10.5153 6.85 10.5653C6.83333 10.6153 6.80833 10.6653 6.775 10.7153C6.75 10.757 6.70833 10.7986 6.675 10.8403C6.51667 10.9903 6.3 11.082 6.08333 11.082Z" fill="#252525"/>
<path d="M9.0013 11.0818C8.89297 11.0818 8.78464 11.0568 8.68464 11.0151C8.5763 10.9734 8.49297 10.9151 8.40964 10.8401C8.25964 10.6818 8.16797 10.4734 8.16797 10.2484C8.16797 10.1401 8.19297 10.0318 8.23464 9.93176C8.2763 9.83176 8.33464 9.74009 8.40964 9.65676C8.49297 9.58176 8.5763 9.52342 8.68464 9.48176C8.98464 9.34842 9.35964 9.42342 9.59297 9.65676C9.74297 9.81509 9.83464 10.0318 9.83464 10.2484C9.83464 10.2984 9.8263 10.3568 9.81797 10.4151C9.80964 10.4651 9.79297 10.5151 9.76797 10.5651C9.7513 10.6151 9.7263 10.6651 9.69297 10.7151C9.66797 10.7568 9.6263 10.7984 9.59297 10.8401C9.43464 10.9901 9.21797 11.0818 9.0013 11.0818Z" fill="#252525"/>
<path d="M11.9154 11.0818C11.807 11.0818 11.6987 11.0568 11.5987 11.0151C11.4904 10.9734 11.407 10.9151 11.3237 10.8401C11.2904 10.7984 11.257 10.7568 11.2237 10.7151C11.1904 10.6651 11.1654 10.6151 11.1487 10.5651C11.1237 10.5151 11.107 10.4651 11.0987 10.4151C11.0904 10.3568 11.082 10.2984 11.082 10.2484C11.082 10.0318 11.1737 9.81509 11.3237 9.65676C11.407 9.58176 11.4904 9.52342 11.5987 9.48176C11.907 9.34842 12.2737 9.42342 12.507 9.65676C12.657 9.81509 12.7487 10.0318 12.7487 10.2484C12.7487 10.2984 12.7404 10.3568 12.732 10.4151C12.7237 10.4651 12.707 10.5151 12.682 10.5651C12.6654 10.6151 12.6404 10.6651 12.607 10.7151C12.582 10.7568 12.5404 10.7984 12.507 10.8401C12.3487 10.9901 12.132 11.0818 11.9154 11.0818Z" fill="#252525"/>
<path d="M6.08333 13.9999C5.975 13.9999 5.86667 13.975 5.76667 13.9333C5.66667 13.8917 5.575 13.8332 5.49167 13.7582C5.34167 13.5999 5.25 13.3832 5.25 13.1666C5.25 13.0582 5.275 12.9499 5.31667 12.8499C5.35833 12.7416 5.41667 12.65 5.49167 12.575C5.8 12.2667 6.36667 12.2667 6.675 12.575C6.825 12.7333 6.91667 12.9499 6.91667 13.1666C6.91667 13.3832 6.825 13.5999 6.675 13.7582C6.51667 13.9082 6.3 13.9999 6.08333 13.9999Z" fill="#252525"/>
<path d="M9.0013 13.9999C8.78464 13.9999 8.56797 13.9082 8.40964 13.7582C8.25964 13.5999 8.16797 13.3832 8.16797 13.1666C8.16797 13.0582 8.19297 12.9499 8.23464 12.8499C8.2763 12.7416 8.33464 12.65 8.40964 12.575C8.71797 12.2667 9.28464 12.2667 9.59297 12.575C9.66797 12.65 9.7263 12.7416 9.76797 12.8499C9.80964 12.9499 9.83464 13.0582 9.83464 13.1666C9.83464 13.3832 9.74297 13.5999 9.59297 13.7582C9.43464 13.9082 9.21797 13.9999 9.0013 13.9999Z" fill="#252525"/>
<path d="M11.9154 13.9994C11.6987 13.9994 11.482 13.9078 11.3237 13.7578C11.2487 13.6828 11.1904 13.5911 11.1487 13.4828C11.107 13.3828 11.082 13.2744 11.082 13.1661C11.082 13.0578 11.107 12.9494 11.1487 12.8494C11.1904 12.7411 11.2487 12.6494 11.3237 12.5744C11.5154 12.3828 11.807 12.2911 12.0737 12.3494C12.132 12.3578 12.182 12.3744 12.232 12.3994C12.282 12.4161 12.332 12.4411 12.382 12.4744C12.4237 12.4994 12.4654 12.5411 12.507 12.5744C12.657 12.7328 12.7487 12.9494 12.7487 13.1661C12.7487 13.3828 12.657 13.5994 12.507 13.7578C12.3487 13.9078 12.132 13.9994 11.9154 13.9994Z" fill="#252525"/>
<path d="M16.0846 7.19922H1.91797C1.5763 7.19922 1.29297 6.91589 1.29297 6.57422C1.29297 6.23255 1.5763 5.94922 1.91797 5.94922H16.0846C16.4263 5.94922 16.7096 6.23255 16.7096 6.57422C16.7096 6.91589 16.4263 7.19922 16.0846 7.19922Z" fill="#252525"/>
<path d="M12.3333 17.9577H5.66667C2.625 17.9577 0.875 16.2077 0.875 13.166V6.08268C0.875 3.04102 2.625 1.29102 5.66667 1.29102H12.3333C15.375 1.29102 17.125 3.04102 17.125 6.08268V13.166C17.125 16.2077 15.375 17.9577 12.3333 17.9577ZM5.66667 2.54102C3.28333 2.54102 2.125 3.69935 2.125 6.08268V13.166C2.125 15.5493 3.28333 16.7077 5.66667 16.7077H12.3333C14.7167 16.7077 15.875 15.5493 15.875 13.166V6.08268C15.875 3.69935 14.7167 2.54102 12.3333 2.54102H5.66667Z" fill="#252525"/>
</svg>
