<svg width="14" height="14" viewBox="0 0 14 14" fill="none" xmlns="http://www.w3.org/2000/svg">
<g clip-path="url(#clip0_95_9913)">
<path d="M7 14C3.14015 14 0 10.8598 0 7C0 3.14015 3.14015 0 7 0C10.8598 0 14 3.14015 14 7C14 10.8598 10.8598 14 7 14ZM7 0.999969C3.69162 0.999969 0.999969 3.69162 0.999969 7C0.999969 10.3084 3.69162 13 7 13C10.3084 13 13 10.3084 13 7C13 3.69162 10.3084 0.999969 7 0.999969Z" fill="#6A6A6D"/>
<path d="M9.50002 9.99996C9.37206 9.99996 9.2441 9.95115 9.14647 9.85342L4.14652 4.85346C3.95116 4.65811 3.95116 4.34173 4.14652 4.14648C4.34177 3.95123 4.65825 3.95112 4.8535 4.14648L9.85346 9.14643C10.0488 9.34179 10.0488 9.65817 9.85346 9.85342C9.75583 9.95115 9.62798 9.99996 9.50002 9.99996Z" fill="#6A6A6D"/>
<path d="M4.49996 10C4.372 10 4.24414 9.95119 4.14652 9.85346C3.95116 9.65821 3.95116 9.34172 4.14652 9.14647L9.14647 4.14652C9.34183 3.95116 9.65821 3.95116 9.85346 4.14652C10.0487 4.34177 10.0488 4.65825 9.85346 4.8535L4.8535 9.85346C4.75588 9.95119 4.62792 10 4.49996 10Z" fill="#6A6A6D"/>
</g>
<defs>
<clipPath id="clip0_95_9913">
<rect width="14" height="14" fill="white"/>
</clipPath>
</defs>
</svg>
