<svg width="20" height="20" viewBox="0 0 20 20" fill="none" xmlns="http://www.w3.org/2000/svg">
<g clip-path="url(#clip0_484_2634)">
<path d="M7.70828 6.66672H1.45828C0.654144 6.66672 0 6.01257 0 5.20828V1.45828C0 0.654144 0.654144 0 1.45828 0H7.70828C8.51257 0 9.16672 0.654144 9.16672 1.45828V5.20828C9.16672 6.01257 8.51257 6.66672 7.70828 6.66672ZM1.45828 1.25C1.34338 1.25 1.25 1.34338 1.25 1.45828V5.20828C1.25 5.32333 1.34338 5.41672 1.45828 5.41672H7.70828C7.82333 5.41672 7.91672 5.32333 7.91672 5.20828V1.45828C7.91672 1.34338 7.82333 1.25 7.70828 1.25H1.45828Z" fill="white"/>
<path d="M7.70828 20H1.45828C0.654144 20 0 19.3458 0 18.5417V9.79169C0 8.9874 0.654144 8.33325 1.45828 8.33325H7.70828C8.51257 8.33325 9.16672 8.9874 9.16672 9.79169V18.5417C9.16672 19.3458 8.51257 20 7.70828 20ZM1.45828 9.58325C1.34338 9.58325 1.25 9.67664 1.25 9.79169V18.5417C1.25 18.6566 1.34338 18.75 1.45828 18.75H7.70828C7.82333 18.75 7.91672 18.6566 7.91672 18.5417V9.79169C7.91672 9.67664 7.82333 9.58325 7.70828 9.58325H1.45828Z" fill="white"/>
<path d="M18.5444 19.9997H12.2944C11.4901 19.9997 10.8359 19.3456 10.8359 18.5414V14.7914C10.8359 13.9872 11.4901 13.333 12.2944 13.333H18.5444C19.3485 13.333 20.0027 13.9872 20.0027 14.7914V18.5414C20.0027 19.3456 19.3485 19.9997 18.5444 19.9997ZM12.2944 14.583C12.1793 14.583 12.0859 14.6764 12.0859 14.7914V18.5414C12.0859 18.6563 12.1793 18.7497 12.2944 18.7497H18.5444C18.6593 18.7497 18.7527 18.6563 18.7527 18.5414V14.7914C18.7527 14.6764 18.6593 14.583 18.5444 14.583H12.2944Z" fill="white"/>
<path d="M18.5444 11.6667H12.2944C11.4901 11.6667 10.8359 11.0126 10.8359 10.2083V1.45828C10.8359 0.654144 11.4901 0 12.2944 0H18.5444C19.3485 0 20.0027 0.654144 20.0027 1.45828V10.2083C20.0027 11.0126 19.3485 11.6667 18.5444 11.6667ZM12.2944 1.25C12.1793 1.25 12.0859 1.34338 12.0859 1.45828V10.2083C12.0859 10.3233 12.1793 10.4167 12.2944 10.4167H18.5444C18.6593 10.4167 18.7527 10.3233 18.7527 10.2083V1.45828C18.7527 1.34338 18.6593 1.25 18.5444 1.25H12.2944Z" fill="white"/>
</g>
<defs>
<clipPath id="clip0_484_2634">
<rect width="20" height="20" fill="white"/>
</clipPath>
</defs>
</svg>
