<svg width="20" height="20" viewBox="0 0 20 20" fill="none" xmlns="http://www.w3.org/2000/svg">
<g clip-path="url(#clip0_484_366)">
<path d="M7.70828 0H1.45828C0.654144 0 0 0.654144 0 1.45828V5.20828C0 6.01257 0.654144 6.66672 1.45828 6.66672H7.70828C8.51257 6.66672 9.16672 6.01257 9.16672 5.20828V1.45828C9.16672 0.654144 8.51257 0 7.70828 0Z" fill="#252525"/>
<path d="M7.70828 8.33325H1.45828C0.654144 8.33325 0 8.9874 0 9.79169V18.5417C0 19.3458 0.654144 20 1.45828 20H7.70828C8.51257 20 9.16672 19.3458 9.16672 18.5417V9.79169C9.16672 8.9874 8.51257 8.33325 7.70828 8.33325Z" fill="#252525"/>
<path d="M18.5444 13.333H12.2944C11.4901 13.333 10.8359 13.9872 10.8359 14.7914V18.5414C10.8359 19.3456 11.4901 19.9997 12.2944 19.9997H18.5444C19.3485 19.9997 20.0027 19.3456 20.0027 18.5414V14.7914C20.0027 13.9872 19.3485 13.333 18.5444 13.333Z" fill="#252525"/>
<path d="M18.5444 0H12.2944C11.4901 0 10.8359 0.654144 10.8359 1.45828V10.2083C10.8359 11.0126 11.4901 11.6667 12.2944 11.6667H18.5444C19.3485 11.6667 20.0027 11.0126 20.0027 10.2083V1.45828C20.0027 0.654144 19.3485 0 18.5444 0Z" fill="#252525"/>
</g>
<defs>
<clipPath id="clip0_484_366">
<rect width="20" height="20" fill="white"/>
</clipPath>
</defs>
</svg>
