<svg width="16" height="18" viewBox="0 0 16 18" fill="none" xmlns="http://www.w3.org/2000/svg">
<path fill-rule="evenodd" clip-rule="evenodd" d="M2.26704 5.45966C2.61146 5.4367 2.90928 5.69729 2.93223 6.0417L3.31552 11.7909C3.3904 12.9142 3.44376 13.6957 3.56089 14.2837C3.67452 14.8541 3.83313 15.156 4.06098 15.3692C4.28882 15.5823 4.60062 15.7205 5.17728 15.7959C5.77178 15.8737 6.55516 15.8749 7.68083 15.8749H8.32533C9.45099 15.8749 10.2343 15.8737 10.8288 15.7959C11.4055 15.7205 11.7173 15.5823 11.9452 15.3692C12.173 15.156 12.3316 14.8541 12.4452 14.2837C12.5624 13.6957 12.6157 12.9142 12.6906 11.7909L13.0739 6.0417C13.0968 5.69729 13.3947 5.4367 13.7391 5.45966C14.0835 5.48262 14.3441 5.78043 14.3212 6.12485L13.9349 11.9179C13.8637 12.9869 13.8062 13.8504 13.6712 14.5279C13.5308 15.2324 13.2922 15.8208 12.7992 16.2819C12.3062 16.7432 11.7032 16.9422 10.991 17.0354C10.3059 17.1249 9.44058 17.1249 8.36924 17.1249H7.63691C6.56558 17.1249 5.70019 17.1249 5.01516 17.0354C4.30295 16.9422 3.69999 16.7432 3.20699 16.2819C2.714 15.8208 2.47532 15.2324 2.33498 14.5279C2.20001 13.8504 2.14246 12.9869 2.07121 11.9179L1.685 6.12485C1.66204 5.78043 1.92263 5.48262 2.26704 5.45966Z" fill="#6A6A6D"/>
<path fill-rule="evenodd" clip-rule="evenodd" d="M6.63072 0.875033L6.59247 0.875016C6.41214 0.874899 6.25501 0.8748 6.10666 0.898491C5.52058 0.992083 5.01341 1.35762 4.73929 1.88403C4.6699 2.01728 4.62032 2.16637 4.5634 2.33747L4.5513 2.37382L4.47039 2.61653C4.45457 2.66401 4.45016 2.6771 4.44632 2.6877C4.30039 3.09113 3.92204 3.36383 3.49316 3.3747C3.48189 3.37498 3.46808 3.37503 3.41804 3.37503H0.917969C0.572794 3.37503 0.292969 3.65486 0.292969 4.00003C0.292969 4.34521 0.572794 4.62503 0.917969 4.62503H3.42518H3.43913H12.5636H12.5776H15.0847C15.4299 4.62503 15.7097 4.34521 15.7097 4.00003C15.7097 3.65486 15.4299 3.37503 15.0847 3.37503H12.5847C12.5346 3.37503 12.5209 3.37498 12.5096 3.3747C12.0807 3.36383 11.7024 3.09112 11.5564 2.68768C11.5526 2.67715 11.5481 2.66377 11.5324 2.61653L11.4515 2.37382L11.4393 2.33745C11.3824 2.16634 11.3328 2.01727 11.2635 1.88403C10.9893 1.35762 10.4821 0.992083 9.89605 0.898491C9.74772 0.8748 9.59064 0.874899 9.4103 0.875016L9.37197 0.875033H6.63072ZM5.62179 3.1129C5.58906 3.20337 5.55102 3.29085 5.50809 3.37503H10.4946C10.4517 3.29085 10.4137 3.20338 10.381 3.11292L10.3487 3.01847L10.2656 2.76911C10.1896 2.54117 10.1721 2.49469 10.1548 2.46137C10.0634 2.2859 9.8943 2.16405 9.69897 2.13285C9.66189 2.12692 9.61222 2.12503 9.37197 2.12503H6.63072C6.39047 2.12503 6.34089 2.12692 6.30377 2.13285C6.10841 2.16405 5.93935 2.2859 5.84798 2.46137C5.83063 2.49469 5.81313 2.54118 5.73715 2.76911L5.65399 3.01862C5.64147 3.05618 5.63172 3.08543 5.62179 3.1129Z" fill="#6A6A6D"/>
</svg>
