<svg width="16" height="16" viewBox="0 0 16 16" fill="none" xmlns="http://www.w3.org/2000/svg">
<path d="M2.77728 10.8991C2.64928 10.8991 2.52153 10.8504 2.42378 10.7526C2.22853 10.5574 2.22853 10.2409 2.42378 10.0456L10.2373 2.23213C10.4323 2.03688 10.749 2.03688 10.9443 2.23213C11.1395 2.42738 11.1395 2.74388 10.9443 2.93913L3.13078 10.7526C3.03328 10.8501 2.90528 10.8991 2.77728 10.8991Z" fill="#6A6A6D"/>
<path d="M2.00441 14.5C1.96966 14.5 1.93441 14.4963 1.89916 14.4888C1.62916 14.4308 1.45716 14.165 1.51516 13.895L2.28766 10.2943C2.34566 10.0243 2.61266 9.85277 2.88141 9.91027C3.15141 9.96827 3.32341 10.234 3.26541 10.504L2.49291 14.1048C2.44266 14.3395 2.23516 14.5 2.00441 14.5Z" fill="#6A6A6D"/>
<path d="M5.60541 13.7275C5.47741 13.7275 5.34966 13.6787 5.25191 13.581C5.05666 13.3857 5.05666 13.0692 5.25191 12.874L13.0654 5.06074C13.2604 4.86549 13.5772 4.86549 13.7724 5.06074C13.9677 5.25599 13.9677 5.57249 13.7724 5.76774L5.95916 13.581C5.86141 13.6787 5.73341 13.7275 5.60541 13.7275Z" fill="#6A6A6D"/>
<path d="M2.00358 14.5001C1.77283 14.5001 1.56558 14.3396 1.51508 14.1048C1.45733 13.8348 1.62908 13.5691 1.89908 13.5111L5.49983 12.7386C5.77008 12.6813 6.03583 12.8528 6.09358 13.1226C6.15133 13.3926 5.97958 13.6583 5.70958 13.7163L2.10883 14.4888C2.07358 14.4966 2.03833 14.5001 2.00358 14.5001Z" fill="#6A6A6D"/>
<path d="M12.004 7.32819C11.876 7.32819 11.748 7.27944 11.6505 7.18169L8.82222 4.35344C8.62697 4.15819 8.62697 3.84169 8.82222 3.64644C9.01722 3.45119 9.33422 3.45119 9.52922 3.64644L12.3575 6.47469C12.5527 6.66994 12.5527 6.98644 12.3575 7.18169C12.26 7.27944 12.132 7.32819 12.004 7.32819Z" fill="#6A6A6D"/>
<path d="M13.4185 5.91431C13.2905 5.91431 13.1625 5.86556 13.0648 5.76781C12.8695 5.57256 12.8695 5.25606 13.0648 5.06056C13.343 4.78231 13.4963 4.40556 13.4963 4.00006C13.4963 3.59456 13.343 3.21781 13.0648 2.93956C12.7863 2.66106 12.4095 2.50781 12.004 2.50781C11.5985 2.50781 11.2218 2.66106 10.9435 2.93956C10.7485 3.13481 10.432 3.13506 10.2363 2.93956C10.041 2.74431 10.041 2.42781 10.2363 2.23231C10.7033 1.76506 11.331 1.50781 12.004 1.50781C12.6768 1.50781 13.3048 1.76506 13.7718 2.23231C14.239 2.69931 14.4963 3.32706 14.4963 4.00006C14.4963 4.67306 14.239 5.30081 13.7718 5.76781C13.6745 5.86531 13.5465 5.91431 13.4185 5.91431Z" fill="#6A6A6D"/>
</svg>
