<svg width="16" height="12" viewBox="0 0 16 12" fill="none" xmlns="http://www.w3.org/2000/svg">
<path d="M9.98637 6.13478L10.8951 5.22603C10.9613 5.47341 11 5.73203 11 6.00003C11 7.65428 9.65425 9.00003 8 9.00003C7.732 9.00003 7.47337 8.96128 7.226 8.89516L8.13475 7.98641C9.12838 7.91866 9.91862 7.12841 9.98637 6.13478ZM15.937 5.75716C15.8755 5.64653 15.0033 4.11816 13.2983 2.82291L12.5706 3.55053C13.8139 4.46466 14.6016 5.53078 14.9117 6.00078C14.3191 6.90316 11.9944 10 8 10C7.401 10 6.844 9.92341 6.31987 9.80116L5.49825 10.6228C6.25362 10.8544 7.08388 11 8 11C13.2341 11 15.8291 6.43703 15.937 6.24291C16.021 6.09178 16.021 5.90828 15.937 5.75716ZM13.8535 0.853531L2.8535 11.8535C2.75587 11.9512 2.62788 12 2.5 12C2.37212 12 2.24413 11.9512 2.1465 11.8535C1.95113 11.6582 1.95113 11.3418 2.1465 11.1465L3.546 9.74703C1.2835 8.38116 0.133875 6.37053 0.063 6.24291C-0.021 6.09178 -0.021 5.90816 0.063 5.75703C0.170875 5.56303 2.76587 1.00003 8 1.00003C9.35337 1.00003 10.5256 1.30878 11.5278 1.76528L13.1465 0.146531C13.3419 -0.0488437 13.6583 -0.0488437 13.8535 0.146531C14.0487 0.341906 14.0489 0.658281 13.8535 0.853531ZM4.29163 9.00141L5.5575 7.73553C5.20787 7.24503 5 6.64691 5 6.00003C5 4.34578 6.34575 3.00003 8 3.00003C8.64688 3.00003 9.245 3.20791 9.7355 3.55741L10.7591 2.53378C9.95037 2.20991 9.03137 2.00003 8 2.00003C4.00562 2.00003 1.68087 5.09691 1.08837 5.99928C1.46463 6.56953 2.54612 8.01303 4.29163 9.00141ZM6.28337 7.00953L9.0095 4.28341C8.71212 4.10778 8.36975 4.00003 8 4.00003C6.89725 4.00003 6 4.89728 6 6.00003C6 6.36978 6.10775 6.71216 6.28337 7.00953Z" fill="#6A6A6D"/>
</svg>
