<svg width="22" height="22" viewBox="0 0 22 22" fill="none" xmlns="http://www.w3.org/2000/svg">
<path fill-rule="evenodd" clip-rule="evenodd" d="M21 20.0107H1C0.586 20.0107 0.25 20.3477 0.25 20.7607C0.25 21.1747 0.586 21.5107 1 21.5107H21C21.414 21.5107 21.75 21.1747 21.75 20.7607C21.75 20.3477 21.414 20.0107 21 20.0107Z" fill="#252525"/>
<path fill-rule="evenodd" clip-rule="evenodd" d="M13.75 20.7607V2.23769C13.75 1.65769 13.462 1.11469 12.981 0.78869C12.5 0.46369 11.889 0.39769 11.35 0.61369L3.35 3.81369C2.686 4.07869 2.25 4.72269 2.25 5.43869V20.7607C2.25 21.1757 2.586 21.5107 3 21.5107H13C13.414 21.5107 13.75 21.1757 13.75 20.7607ZM6 18.5107H10C10.414 18.5107 10.75 18.1747 10.75 17.7607C10.75 17.3477 10.414 17.0107 10 17.0107H6C5.586 17.0107 5.25 17.3477 5.25 17.7607C5.25 18.1747 5.586 18.5107 6 18.5107ZM6 15.0107H10C10.414 15.0107 10.75 14.6747 10.75 14.2607C10.75 13.8477 10.414 13.5107 10 13.5107H6C5.586 13.5107 5.25 13.8477 5.25 14.2607C5.25 14.6747 5.586 15.0107 6 15.0107ZM6 11.5107H10C10.414 11.5107 10.75 11.1747 10.75 10.7607C10.75 10.3477 10.414 10.0107 10 10.0107H6C5.586 10.0107 5.25 10.3477 5.25 10.7607C5.25 11.1747 5.586 11.5107 6 11.5107ZM6 8.01069H10C10.414 8.01069 10.75 7.67469 10.75 7.26069C10.75 6.84769 10.414 6.51069 10 6.51069H6C5.586 6.51069 5.25 6.84769 5.25 7.26069C5.25 7.67469 5.586 8.01069 6 8.01069Z" fill="#252525"/>
<path fill-rule="evenodd" clip-rule="evenodd" d="M14.75 6.01074V20.7607C14.75 21.0297 14.69 21.2837 14.582 21.5107H19C19.414 21.5107 19.75 21.1757 19.75 20.7607V7.76074C19.75 6.79474 18.966 6.01074 18 6.01074H14.75Z" fill="#252525"/>
</svg>
