<svg width="24" height="24" viewBox="0 0 24 24" fill="none" xmlns="http://www.w3.org/2000/svg">
<path d="M13.4531 8.90625C13.0648 8.90625 12.75 9.22106 12.75 9.60938V11.0156C12.75 11.4039 13.0648 11.7188 13.4531 11.7188C13.8414 11.7188 14.1562 11.4039 14.1562 11.0156V9.60938C14.1562 9.22106 13.8414 8.90625 13.4531 8.90625Z" fill="white"/>
<path d="M16.2656 7.5C15.8773 7.5 15.5625 7.81481 15.5625 8.20312V11.0156C15.5625 11.4039 15.8773 11.7188 16.2656 11.7188C16.6539 11.7188 16.9688 11.4039 16.9688 11.0156V8.20312C16.9688 7.81481 16.6539 7.5 16.2656 7.5Z" fill="white"/>
<path d="M19.0781 6.09375C18.6898 6.09375 18.375 6.40856 18.375 6.79688V11.0156C18.375 11.4039 18.6898 11.7188 19.0781 11.7188C19.4664 11.7188 19.7812 11.4039 19.7812 11.0156V6.79688C19.7812 6.40856 19.4664 6.09375 19.0781 6.09375Z" fill="white"/>
<path d="M16.2656 0C12.0009 0 8.53126 3.46964 8.53126 7.73438C8.53126 9.10186 8.8885 10.3873 9.51376 11.5031L6.91075 14.1061C6.33264 13.9011 5.66176 14.0293 5.1999 14.4912L0.890965 18.8001C-0.296988 19.9881 -0.296988 21.9211 0.890965 23.109C2.07892 24.297 4.01195 24.297 5.1999 23.109L9.50884 18.8001C9.9707 18.3382 10.0989 17.6674 9.89387 17.0893L12.4969 14.4862C13.6127 15.1115 14.8982 15.4688 16.2656 15.4688C20.5304 15.4688 24 11.9991 24 7.73438C24 3.46964 20.5304 0 16.2656 0ZM8.51448 17.8057L4.20554 22.1146C3.56589 22.7543 2.52503 22.7543 1.88537 22.1146C1.24571 21.475 1.24571 20.4341 1.88537 19.7944L6.19431 15.4855C6.28567 15.3941 6.4344 15.3941 6.52576 15.4855L8.51448 17.4743C8.60584 17.5657 8.60584 17.7143 8.51448 17.8057ZM9.01168 15.9827L8.01732 14.9884L10.3247 12.681C10.6255 13.0417 10.9584 13.3746 11.3191 13.6754L9.01168 15.9827ZM16.2656 14.0625C12.7763 14.0625 9.93751 11.2237 9.93751 7.73438C9.93751 4.24505 12.7763 1.40625 16.2656 1.40625C19.755 1.40625 22.5938 4.24505 22.5938 7.73438C22.5938 11.2237 19.755 14.0625 16.2656 14.0625Z" fill="white"/>
<path d="M16.2656 2.8125H14.1563C13.768 2.8125 13.4531 3.12731 13.4531 3.51562C13.4531 3.90394 13.768 4.21875 14.1563 4.21875H14.5682L12.4872 6.29972C12.2126 6.57431 12.2126 7.01948 12.4872 7.29408C12.7618 7.56867 13.207 7.56867 13.4816 7.29408L15.5625 5.21311V5.625C15.5625 6.01331 15.8773 6.32812 16.2656 6.32812C16.654 6.32812 16.9688 6.01331 16.9688 5.625V3.51562C16.9688 3.12731 16.654 2.8125 16.2656 2.8125Z" fill="white"/>
</svg>
