<svg width="22" height="22" viewBox="0 0 22 22" fill="none" xmlns="http://www.w3.org/2000/svg">
<path d="M16.6172 8.62012H11.3672C10.9572 8.62012 10.6172 8.28012 10.6172 7.87012C10.6172 7.46012 10.9572 7.12012 11.3672 7.12012H16.6172C17.0272 7.12012 17.3672 7.46012 17.3672 7.87012C17.3672 8.28012 17.0372 8.62012 16.6172 8.62012Z" fill="white"/>
<path d="M6.11859 9.38034C5.92859 9.38034 5.73859 9.31034 5.58859 9.16034L4.83859 8.41031C4.54859 8.12031 4.54859 7.64031 4.83859 7.35031C5.12859 7.06031 5.60859 7.06031 5.89859 7.35031L6.11859 7.57031L7.83859 5.85031C8.12859 5.56031 8.60859 5.56031 8.89859 5.85031C9.18862 6.14031 9.18862 6.62031 8.89859 6.91031L6.64859 9.16034C6.50859 9.30034 6.31859 9.38034 6.11859 9.38034Z" fill="white"/>
<path d="M16.6172 15.6201H11.3672C10.9572 15.6201 10.6172 15.2801 10.6172 14.8701C10.6172 14.4601 10.9572 14.1201 11.3672 14.1201H16.6172C17.0272 14.1201 17.3672 14.4601 17.3672 14.8701C17.3672 15.2801 17.0372 15.6201 16.6172 15.6201Z" fill="white"/>
<path d="M6.11859 16.3803C5.92859 16.3803 5.73859 16.3103 5.58859 16.1603L4.83859 15.4103C4.54859 15.1203 4.54859 14.6403 4.83859 14.3503C5.12859 14.0603 5.60859 14.0603 5.89859 14.3503L6.11859 14.5703L7.83859 12.8503C8.12859 12.5603 8.60859 12.5603 8.89859 12.8503C9.18862 13.1403 9.18862 13.6203 8.89859 13.9103L6.64859 16.1603C6.50859 16.3003 6.31859 16.3803 6.11859 16.3803Z" fill="white"/>
<path d="M14 21.75H8C2.57 21.75 0.25 19.43 0.25 14V8C0.25 2.57 2.57 0.25 8 0.25H14C19.43 0.25 21.75 2.57 21.75 8V14C21.75 19.43 19.43 21.75 14 21.75ZM8 1.75C3.39 1.75 1.75 3.39 1.75 8V14C1.75 18.61 3.39 20.25 8 20.25H14C18.61 20.25 20.25 18.61 20.25 14V8C20.25 3.39 18.61 1.75 14 1.75H8Z" fill="white"/>
</svg>
