<svg width="22" height="22" viewBox="0 0 22 22" fill="none" xmlns="http://www.w3.org/2000/svg">
<path d="M15.5366 0.166992H6.45823C2.5149 0.166992 0.164062 2.51783 0.164062 6.46116V15.5395C0.164062 19.4828 2.5149 21.8337 6.45823 21.8337H15.5366C19.4799 21.8337 21.8307 19.4828 21.8307 15.5395V6.46116C21.8307 2.51783 19.4799 0.166992 15.5366 0.166992ZM8.79823 14.142L6.36073 16.5795C6.19823 16.742 5.9924 16.8178 5.78656 16.8178C5.58073 16.8178 5.36406 16.742 5.2124 16.5795L4.3999 15.767C4.0749 15.4528 4.0749 14.9328 4.3999 14.6187C4.71406 14.3045 5.22323 14.3045 5.54823 14.6187L5.78656 14.857L7.6499 12.9937C7.96406 12.6795 8.47323 12.6795 8.79823 12.9937C9.1124 13.3078 9.1124 13.8278 8.79823 14.142ZM8.79823 6.55866L6.36073 8.99616C6.19823 9.15866 5.9924 9.23449 5.78656 9.23449C5.58073 9.23449 5.36406 9.15866 5.2124 8.99616L4.3999 8.18366C4.0749 7.86949 4.0749 7.34949 4.3999 7.03533C4.71406 6.72116 5.22323 6.72116 5.54823 7.03533L5.78656 7.27366L7.6499 5.41033C7.96406 5.09616 8.47323 5.09616 8.79823 5.41033C9.1124 5.72449 9.1124 6.24449 8.79823 6.55866ZM17.0207 16.0053H11.3332C10.8891 16.0053 10.5207 15.637 10.5207 15.1928C10.5207 14.7487 10.8891 14.3803 11.3332 14.3803H17.0207C17.4757 14.3803 17.8332 14.7487 17.8332 15.1928C17.8332 15.637 17.4757 16.0053 17.0207 16.0053ZM17.0207 8.42199H11.3332C10.8891 8.42199 10.5207 8.05366 10.5207 7.60949C10.5207 7.16533 10.8891 6.79699 11.3332 6.79699H17.0207C17.4757 6.79699 17.8332 7.16533 17.8332 7.60949C17.8332 8.05366 17.4757 8.42199 17.0207 8.42199Z" fill="#252525"/>
</svg>
