<svg width="24" height="24" viewBox="0 0 24 24" fill="none" xmlns="http://www.w3.org/2000/svg">
<path d="M6.32121 15.6896C5.95512 15.3235 5.36149 15.3235 4.9954 15.6896L0.686461 19.9986C-0.22882 20.9139 -0.22882 22.3979 0.686461 23.3132C1.60174 24.2284 3.08571 24.2284 4.00104 23.3132L8.30998 19.0042C8.67607 18.6381 8.67607 18.0445 8.30998 17.6784L6.32121 15.6896Z" fill="#252525"/>
<path d="M9.2905 12.7217L7.31641 14.6957L9.30513 16.6844L11.2792 14.7104C10.5163 14.1564 9.84447 13.4846 9.2905 12.7217Z" fill="#252525"/>
<path d="M16.5 0C12.3645 0 9 3.3645 9 7.5C9 11.6355 12.3645 15 16.5 15C20.6355 15 24 11.6355 24 7.5C24 3.3645 20.6355 0 16.5 0ZM14.3906 10.7812C14.3906 11.1696 14.0758 11.4844 13.6875 11.4844C13.2992 11.4844 12.9844 11.1696 12.9844 10.7812V9.375C12.9844 8.98669 13.2992 8.67188 13.6875 8.67188C14.0758 8.67188 14.3906 8.98669 14.3906 9.375V10.7812ZM17.2031 10.7812C17.2031 11.1696 16.8883 11.4844 16.5 11.4844C16.1117 11.4844 15.7969 11.1696 15.7969 10.7812V7.96875C15.7969 7.58044 16.1117 7.26562 16.5 7.26562C16.8883 7.26562 17.2031 7.58044 17.2031 7.96875V10.7812ZM17.2031 5.39062C17.2031 5.77894 16.8883 6.09375 16.5 6.09375C16.1117 6.09375 15.7969 5.77894 15.7969 5.39062V4.97873L13.7159 7.0597C13.4413 7.3343 12.9961 7.3343 12.7215 7.0597C12.447 6.78511 12.447 6.33994 12.7215 6.06534L14.8025 3.98438H14.3906C14.0023 3.98438 13.6875 3.66956 13.6875 3.28125C13.6875 2.89294 14.0023 2.57812 14.3906 2.57812H16.5C16.8883 2.57812 17.2031 2.89294 17.2031 3.28125V5.39062ZM20.0156 10.7812C20.0156 11.1696 19.7008 11.4844 19.3125 11.4844C18.9242 11.4844 18.6094 11.1696 18.6094 10.7812V6.5625C18.6094 6.17419 18.9242 5.85938 19.3125 5.85938C19.7008 5.85938 20.0156 6.17419 20.0156 6.5625V10.7812Z" fill="#252525"/>
</svg>
