<svg width="22" height="22" viewBox="0 0 22 22" fill="none" xmlns="http://www.w3.org/2000/svg">
<path d="M1.66927 21.6596H3.33594C4.07096 21.6596 4.66927 21.0613 4.66927 20.3263V18.0196C4.66927 17.2846 4.07096 16.6863 3.33594 16.6863H1.66927C0.934245 16.6863 0.335938 17.2846 0.335938 18.0196V20.3263C0.335938 21.0613 0.934245 21.6596 1.66927 21.6596ZM1.66927 18.0196H3.33594L3.33724 20.3263H1.66927V18.0196Z" fill="white"/>
<path d="M7.33333 21.6595H9C9.73503 21.6595 10.3333 21.0612 10.3333 20.3262V12.0599C10.3333 11.3249 9.73503 10.7266 9 10.7266H7.33333C6.59831 10.7266 6 11.3249 6 12.0599V20.3262C6 21.0612 6.59831 21.6595 7.33333 21.6595ZM7.33333 12.0599H9L9.0013 20.3262H7.33333V12.0599Z" fill="white"/>
<path d="M13.0052 13.0459C12.2702 13.0459 11.6719 13.6442 11.6719 14.3792V20.3258C11.6719 21.0609 12.2702 21.6592 13.0052 21.6592H14.6719C15.4069 21.6592 16.0052 21.0609 16.0052 20.3258V14.3792C16.0052 13.6442 15.4069 13.0459 14.6719 13.0459H13.0052ZM13.0052 20.3258V14.3792H14.6719L14.6732 20.3258H13.0052Z" fill="white"/>
<path d="M21.6693 20.3261V7.37948C21.6693 6.64445 21.071 6.04614 20.3359 6.04614H18.6693C17.9342 6.04614 17.3359 6.64445 17.3359 7.37948V20.3261C17.3359 21.0611 17.9342 21.6594 18.6693 21.6594H20.3359C21.071 21.6594 21.6693 21.0611 21.6693 20.3261ZM18.6693 7.37948H20.3359L20.3372 20.3261H18.6693V7.37948Z" fill="white"/>
<path d="M2.96615 10.1576L7.99675 5.12695C8.19466 4.92969 8.49805 4.875 8.7526 4.99544L12.7233 6.86328C13.4824 7.22331 14.3939 7.0638 14.9889 6.4681L19.9798 1.47786C20.2402 1.21745 20.2402 0.795573 19.9798 0.535156C19.7194 0.27474 19.2975 0.27474 19.0371 0.535156L14.0462 5.52539C13.8477 5.72396 13.5436 5.77734 13.291 5.6569L9.32031 3.78841C8.56185 3.43164 7.64909 3.58919 7.05404 4.18424L2.02344 9.21484C1.76302 9.47526 1.76302 9.89713 2.02344 10.1576C2.28385 10.418 2.70572 10.418 2.96615 10.1576Z" fill="white"/>
</svg>
