<svg width="24" height="24" viewBox="0 0 24 24" fill="none" xmlns="http://www.w3.org/2000/svg">
<path d="M3.01923 11.1568C2.75922 10.8968 2.75922 10.4768 3.01923 10.2168L8.05255 5.18345C8.64589 4.59011 9.55922 4.43011 10.3192 4.7901L14.2925 6.6568C14.5392 6.77679 14.8459 6.72345 15.0459 6.52346L20.0326 1.5368C20.2925 1.27679 20.7192 1.27679 20.9792 1.5368C21.2392 1.79677 21.2392 2.21678 20.9792 2.47679L15.9859 7.47011C15.3926 8.06346 14.4792 8.22345 13.7192 7.86346L9.75254 5.99681C9.49921 5.87677 9.19257 5.93011 8.99257 6.12343L3.96588 11.1568C3.83254 11.2901 3.66587 11.3501 3.49257 11.3501C3.31923 11.3501 3.15257 11.2901 3.01923 11.1568Z" fill="#252525"/>
<path d="M11.1641 13.056V21.3227C11.1641 22.0627 10.5641 22.656 9.83073 22.656H8.4974C7.76408 22.656 7.16406 22.0627 7.16406 21.3227V13.056C7.16406 12.3227 7.76408 11.7227 8.4974 11.7227H9.83073C10.5641 11.7227 11.1641 12.3227 11.1641 13.056Z" fill="#252525"/>
<path d="M22.5 8.3763V21.323C22.5 22.063 21.9 22.6563 21.1667 22.6563H19.8333C19.1 22.6563 18.5 22.063 18.5 21.323V8.3763C18.5 7.64298 19.1 7.04297 19.8333 7.04297H21.1667C21.9 7.04297 22.5 7.64298 22.5 8.3763Z" fill="#252525"/>
<path d="M5.5 19.0169V21.3236C5.5 22.0636 4.90002 22.6569 4.16667 22.6569H2.83333C2.10002 22.6569 1.5 22.0636 1.5 21.3236V19.0169C1.5 18.2836 2.10002 17.6836 2.83333 17.6836H4.16667C4.90002 17.6836 5.5 18.2836 5.5 19.0169Z" fill="#252525"/>
<path d="M16.8359 15.3763V21.323C16.8359 22.063 16.236 22.6563 15.5026 22.6563H14.1693C13.436 22.6563 12.8359 22.063 12.8359 21.323V15.3763C12.8359 14.643 13.436 14.043 14.1693 14.043H15.5026C16.236 14.043 16.8359 14.643 16.8359 15.3763Z" fill="#252525"/>
</svg>
