<svg width="16" height="15" viewBox="0 0 16 15" fill="none" xmlns="http://www.w3.org/2000/svg">
<g clip-path="url(#clip0_95_11591)">
<path d="M14.7109 14.5L10.7109 10.5M6.71094 12.5C5.92301 12.5 5.14279 12.3448 4.41484 12.0433C3.68688 11.7417 3.02545 11.2998 2.4683 10.7426C1.91115 10.1855 1.46919 9.52405 1.16766 8.7961C0.866132 8.06815 0.710938 7.28793 0.710938 6.5C0.710938 5.71207 0.866132 4.93185 1.16766 4.2039C1.46919 3.47595 1.91115 2.81451 2.4683 2.25736C3.02545 1.70021 3.68688 1.25825 4.41484 0.956723C5.14279 0.655195 5.92301 0.5 6.71094 0.5C8.30224 0.5 9.82836 1.13214 10.9536 2.25736C12.0788 3.38258 12.7109 4.9087 12.7109 6.5C12.7109 8.0913 12.0788 9.61742 10.9536 10.7426C9.82836 11.8679 8.30224 12.5 6.71094 12.5Z" stroke="#1E1F21"/>
</g>
<defs>
<clipPath id="clip0_95_11591">
<rect width="15" height="15" fill="white" transform="translate(0.53125)"/>
</clipPath>
</defs>
</svg>
