<svg width="22" height="22" viewBox="0 0 22 22" fill="none" xmlns="http://www.w3.org/2000/svg">
<path d="M19.25 2H16.25V1.25C16.25 1.05109 16.171 0.860322 16.0303 0.71967C15.8897 0.579018 15.6989 0.5 15.5 0.5C15.3011 0.5 15.1103 0.579018 14.9697 0.71967C14.829 0.860322 14.75 1.05109 14.75 1.25V2H7.25V1.25C7.25 1.05109 7.17098 0.860322 7.03033 0.71967C6.88968 0.579018 6.69891 0.5 6.5 0.5C6.30109 0.5 6.11032 0.579018 5.96967 0.71967C5.82902 0.860322 5.75 1.05109 5.75 1.25V2H2.75C2.15326 2 1.58097 2.23705 1.15901 2.65901C0.737053 3.08097 0.5 3.65326 0.5 4.25V19.25C0.5 19.8467 0.737053 20.419 1.15901 20.841C1.58097 21.2629 2.15326 21.5 2.75 21.5H19.25C19.8467 21.5 20.419 21.2629 20.841 20.841C21.2629 20.419 21.5 19.8467 21.5 19.25V4.25C21.5 3.65326 21.2629 3.08097 20.841 2.65901C20.419 2.23705 19.8467 2 19.25 2ZM2.75 3.5H19.25C19.4489 3.5 19.6397 3.57902 19.7803 3.71967C19.921 3.86032 20 4.05109 20 4.25V6.5H2V4.25C2 4.05109 2.07902 3.86032 2.21967 3.71967C2.36032 3.57902 2.55109 3.5 2.75 3.5ZM19.25 20H2.75C2.55109 20 2.36032 19.921 2.21967 19.7803C2.07902 19.6397 2 19.4489 2 19.25V8H20V19.25C20 19.4489 19.921 19.6397 19.7803 19.7803C19.6397 19.921 19.4489 20 19.25 20Z" fill="white"/>
</svg>
