<svg width="22" height="22" viewBox="0 0 22 22" fill="none" xmlns="http://www.w3.org/2000/svg">
<path d="M21.5 6.5V4.25C21.5 3.65326 21.2629 3.08097 20.841 2.65901C20.419 2.23705 19.8467 2 19.25 2H16.25V1.25C16.25 1.05109 16.171 0.860322 16.0303 0.71967C15.8897 0.579018 15.6989 0.5 15.5 0.5C15.3011 0.5 15.1103 0.579018 14.9697 0.71967C14.829 0.860322 14.75 1.05109 14.75 1.25V2H7.25V1.25C7.25 1.05109 7.17098 0.860322 7.03033 0.71967C6.88968 0.579018 6.69891 0.5 6.5 0.5C6.30109 0.5 6.11032 0.579018 5.96967 0.71967C5.82902 0.860322 5.75 1.05109 5.75 1.25V2H2.75C2.15326 2 1.58097 2.23705 1.15901 2.65901C0.737053 3.08097 0.5 3.65326 0.5 4.25V6.5H21.5Z" fill="#252525"/>
<path d="M0.5 8V19.25C0.5 19.8467 0.737053 20.419 1.15901 20.841C1.58097 21.2629 2.15326 21.5 2.75 21.5H19.25C19.8467 21.5 20.419 21.2629 20.841 20.841C21.2629 20.419 21.5 19.8467 21.5 19.25V8H0.5ZM15.2375 12.3193L9.9875 16.8193C9.844 16.9419 9.6595 17.006 9.47084 16.9986C9.28218 16.9913 9.10325 16.913 8.96975 16.7795L6.71975 14.5295C6.58313 14.388 6.50754 14.1986 6.50924 14.0019C6.51095 13.8053 6.58983 13.6172 6.72889 13.4781C6.86794 13.3391 7.05605 13.2602 7.2527 13.2585C7.44935 13.2568 7.6388 13.3324 7.78025 13.469L9.53975 15.2285L14.2648 11.1785C14.3391 11.1115 14.4261 11.06 14.5207 11.0272C14.6153 10.9943 14.7155 10.9807 14.8154 10.9872C14.9153 10.9936 15.0129 11.02 15.1024 11.0648C15.1919 11.1096 15.2716 11.1719 15.3367 11.2479C15.4018 11.324 15.451 11.4123 15.4814 11.5077C15.5118 11.6031 15.5229 11.7036 15.5138 11.8033C15.5048 11.903 15.4759 11.9999 15.4288 12.0882C15.3817 12.1766 15.3175 12.2546 15.2397 12.3177L15.2375 12.3193Z" fill="#252525"/>
</svg>
